HIERARCHY
ROOT Hips
{
	OFFSET 0.00000 0.00000 0.00000
	CHANNELS 6 Xposition Yposition Zposition Zrotation Yrotation Xrotation 
	JOINT LHipJoint
	{
		OFFSET 0 0 0
		CHANNELS 3 Zrotation Yrotation Xrotation
		JOINT LeftUpLeg
		{
			OFFSET 1.36306 -1.79463 0.83929
			CHANNELS 3 Zrotation Yrotation Xrotation
			JOINT LeftLeg
			{
				OFFSET 2.44811 -6.72613 0.00000
				CHANNELS 3 Zrotation Yrotation Xrotation
				JOINT LeftFoot
				{
					OFFSET 2.56220 -7.03959 0.00000
					CHANNELS 3 Zrotation Yrotation Xrotation
					JOINT LeftToeBase
					{
						OFFSET 0.15764 -0.43311 2.32255
						CHANNELS 3 Zrotation Yrotation Xrotation
						End Site
						{
							OFFSET 0.00000 -0.00000 1.18966
						}
					}
				}
			}
		}
	}
	JOINT RHipJoint
	{
		OFFSET 0 0 0
		CHANNELS 3 Zrotation Yrotation Xrotation
		JOINT RightUpLeg
		{
			OFFSET -1.30552 -1.79463 0.83929
			CHANNELS 3 Zrotation Yrotation Xrotation
			JOINT RightLeg
			{
				OFFSET -2.54253 -6.98555 0.00000
				CHANNELS 3 Zrotation Yrotation Xrotation
				JOINT RightFoot
				{
					OFFSET -2.56826 -7.05623 0.00000
					CHANNELS 3 Zrotation Yrotation Xrotation
					JOINT RightToeBase
					{
						OFFSET -0.16473 -0.45259 2.36315
						CHANNELS 3 Zrotation Yrotation Xrotation
						End Site
						{
							OFFSET -0.00000 -0.00000 1.21082
						}
					}
				}
			}
		}
	}
	JOINT LowerBack
	{
		OFFSET 0 0 0
		CHANNELS 3 Zrotation Yrotation Xrotation
		JOINT Spine
		{
			OFFSET 0.02827 2.03559 -0.19338
			CHANNELS 3 Zrotation Yrotation Xrotation
			JOINT Spine1
			{
				OFFSET 0.05672 2.04885 -0.04275
				CHANNELS 3 Zrotation Yrotation Xrotation
				JOINT Neck
				{
					OFFSET 0 0 0
					CHANNELS 3 Zrotation Yrotation Xrotation
					JOINT Neck1
					{
						OFFSET -0.05417 1.74624 0.17202
						CHANNELS 3 Zrotation Yrotation Xrotation
						JOINT Head
						{
							OFFSET 0.10407 1.76136 -0.12397
							CHANNELS 3 Zrotation Yrotation Xrotation
							End Site
							{
								OFFSET 0.03720 1.77044 -0.06241
							}
						}
					}
				}
				JOINT LeftShoulder
				{
					OFFSET 0 0 0
					CHANNELS 3 Zrotation Yrotation Xrotation
					JOINT LeftArm
					{
						OFFSET 3.36241 1.20089 -0.31121
						CHANNELS 3 Zrotation Yrotation Xrotation
						JOINT LeftForeArm
						{
							OFFSET 4.98300 -0.00000 -0.00000
							CHANNELS 3 Zrotation Yrotation Xrotation
							JOINT LeftHand
							{
								OFFSET 3.48356 -0.00000 -0.00000
								CHANNELS 3 Zrotation Yrotation Xrotation
								JOINT LeftFingerBase
								{
									OFFSET 0 0 0
									CHANNELS 3 Zrotation Yrotation Xrotation
									JOINT LeftHandIndex1
									{
										OFFSET 0.71526 -0.00000 -0.00000
										CHANNELS 3 Zrotation Yrotation Xrotation
										End Site
										{
											OFFSET 0.57666 -0.00000 -0.00000
										}
									}
								}
								JOINT LThumb
								{
									OFFSET 0 0 0
									CHANNELS 3 Zrotation Yrotation Xrotation
									End Site
									{
										OFFSET 0.58547 -0.00000 0.58547
									}
								}
							}
						}
					}
				}
				JOINT RightShoulder
				{
					OFFSET 0 0 0
					CHANNELS 3 Zrotation Yrotation Xrotation
					JOINT RightArm
					{
						OFFSET -3.13660 1.37405 -0.40465
						CHANNELS 3 Zrotation Yrotation Xrotation
						JOINT RightForeArm
						{
							OFFSET -5.24190 -0.00000 -0.00000
							CHANNELS 3 Zrotation Yrotation Xrotation
							JOINT RightHand
							{
								OFFSET -3.44417 -0.00000 -0.00000
								CHANNELS 3 Zrotation Yrotation Xrotation
								JOINT RightFingerBase
								{
									OFFSET 0 0 0
									CHANNELS 3 Zrotation Yrotation Xrotation
									JOINT RightHandIndex1
									{
										OFFSET -0.62253 -0.00000 -0.00000
										CHANNELS 3 Zrotation Yrotation Xrotation
										End Site
										{
											OFFSET -0.50190 -0.00000 -0.00000
										}
									}
								}
								JOINT RThumb
								{
									OFFSET 0 0 0
									CHANNELS 3 Zrotation Yrotation Xrotation
									End Site
									{
										OFFSET -0.50956 -0.00000 0.50956
									}
								}
							}
						}
					}
				}
			}
		}
	}
}
MOTION
Frames: 5
Frame Time: .0083333
0 17.8391 0 -5.6784 -6.1064 4.0133 0.0000 0.0000 0.0000 -10.4883 -0.6496 -12.7303 2.7489 10.2770 29.8784 0.9793 -2.3693 -18.0566 0.1009 -2.0483 -5.6392 0.0000 0.0000 0.0000 24.3211 7.1617 -10.3727 -2.5021 -9.8418 28.4658 -0.6577 -4.0340 -17.3131 -0.0907 -1.9423 5.3461 2.7695 0.8806 13.7729 3.3517 1.7463 2.5020 1.6501 0.8307 -5.1036 -7.2970 -3.0802 -6.4609 6.3177 -3.7383 1.2078 3.2234 -1.7777 1.8232 0.0000 0.0000 0.0000 -79.3749 2.0485 23.7657 127.0404 -54.1216 -91.4447 -0.0000 0.0000 -6.9244 37.9897 -16.7252 -12.6671 -7.1250 0.0000 -0.0000 6.5950 9.2200 -5.4906 0.0000 0.0000 0.0000 80.6613 5.4332 31.0860 -99.9664 59.6213 -68.6202 0.0000 -0.0000 -14.1289 -19.0784 -7.2158 2.4875 7.1250 -0.0000 -0.0000 6.5781 -37.5370 1.2146
0 17.8381 0 -5.6063 -5.6808 4.0191 0.0000 0.0000 0.0000 -10.5522 -1.0006 -12.7157 2.7363 10.2553 29.8076 0.9714 -2.4486 -17.9644 0.0936 -1.9730 -5.4312 0.0000 0.0000 0.0000 24.2325 6.9142 -10.6022 -2.5419 -9.9136 28.6975 -0.6492 -4.2157 -17.3339 -0.0760 -1.7786 4.8941 2.8120 0.8744 13.6838 3.2938 1.7333 2.5784 1.5686 0.8248 -4.9706 -7.2450 -3.1661 -6.4617 6.4528 -3.8550 1.0012 3.2546 -1.8322 1.7668 -0.0000 -0.0000 0.0000 -79.3036 1.8105 23.9967 126.8085 -54.2043 -91.2566 -0.0000 0.0000 -6.8359 37.9522 -16.7910 -12.6974 -7.1250 0.0000 -0.0000 6.5598 9.1496 -5.4701 -0.0000 -0.0000 0.0000 80.6416 5.6685 30.4523 -100.4944 59.5797 -69.0756 0.0000 -0.0000 -14.0945 -18.9214 -7.0795 2.4192 7.1250 -0.0000 -0.0000 6.6930 -37.3841 1.2613
0 17.8451 0 -5.2179 -5.4287 3.9859 0.0000 0.0000 0.0000 -11.0057 -1.1535 -12.6969 2.7331 10.2499 29.7898 0.9715 -2.5945 -17.9363 0.0881 -1.9140 -5.2679 0.0000 0.0000 0.0000 23.7555 6.5798 -10.8249 -2.5789 -9.9799 28.9118 -0.6473 -4.1105 -17.2455 -0.0633 -1.6235 4.4662 2.4000 0.8901 13.6689 3.2795 1.6935 2.5975 1.7932 0.8119 -4.9535 -7.4966 -3.1607 -6.3865 6.5659 -3.8301 0.8039 3.3435 -1.8196 1.6972 -0.0000 -0.0000 0.0000 -79.5117 1.8027 24.0303 126.8947 -54.1737 -91.3265 -0.0000 0.0000 -7.2354 37.6429 -16.8428 -12.5976 -7.1250 0.0000 -0.0000 6.3537 9.1604 -5.2947 -0.0000 -0.0000 0.0000 80.3557 5.7368 30.0455 -101.1629 59.5239 -69.6519 0.0000 -0.0000 -14.0506 -19.0152 -7.1266 2.4482 7.1250 -0.0000 -0.0000 6.6199 -37.4395 1.2383
0 17.8453 0 -4.9378 -5.3003 3.9633 0.0000 0.0000 0.0000 -11.3572 -1.1442 -12.7570 2.7452 10.2706 29.8576 0.9734 -2.6717 -17.9396 0.0871 -1.9034 -5.2387 0.0000 0.0000 0.0000 23.3850 6.1756 -11.0513 -2.6022 -10.0214 29.0462 -0.6426 -3.9928 -17.1177 -0.0386 -1.2689 3.4889 2.1632 0.9201 13.7629 3.2253 1.6983 2.6465 1.8679 0.8175 -4.9588 -7.4634 -3.2273 -6.5454 6.4675 -3.9014 0.6110 3.2981 -1.8538 1.6638 -0.0000 0.0000 0.0000 -79.5991 1.5563 24.0320 126.8319 -54.1960 -91.2756 -0.0000 0.0000 -7.5725 37.8633 -17.0773 -12.8606 -7.1250 0.0000 -0.0000 6.4535 8.8265 -5.4222 -0.0000 0.0000 0.0000 80.1623 5.9905 29.6798 -101.7387 59.4729 -70.1480 0.0000 -0.0000 -14.0179 -19.0610 -7.6768 2.6427 7.1250 -0.0000 -0.0000 6.6540 -38.0190 1.1498
0 17.8405 0 -5.0310 -5.2148 3.9414 0.0000 0.0000 0.0000 -11.2201 -1.0933 -12.8707 2.7746 10.3209 30.0221 0.9755 -2.8639 -17.9243 0.0711 -1.7200 -4.7323 0.0000 0.0000 0.0000 23.5076 6.1256 -11.0802 -2.6103 -10.0358 29.0926 -0.6359 -4.0698 -17.0904 -0.0385 -1.2660 3.4811 2.1822 0.8834 13.8578 3.2716 1.6550 2.7361 1.9129 0.7963 -4.9162 -7.4174 -3.2485 -6.7069 6.3203 -3.9126 0.4444 3.2359 -1.8590 1.6330 0.0000 0.0000 0.0000 -79.6867 1.3068 23.8103 126.6475 -54.2613 -91.1260 -0.0000 0.0000 -7.5506 37.9821 -17.4947 -13.2092 -7.1250 0.0000 -0.0000 6.4557 8.2965 -5.4925 0.0000 0.0000 0.0000 80.0192 6.3538 29.5571 -102.2481 59.4255 -70.5867 0.0000 -0.0000 -14.2437 -19.5382 -8.1221 2.8702 7.1250 -0.0000 -0.0000 6.3076 -38.5196 1.0115
